<svg xmlns="http://www.w3.org/2000/svg" viewBox="0 -0.5 36 36" shape-rendering="crispEdges">
<metadata>Made with Pixels to Svg https://codepen.io/shshaw/pen/XbxvNj</metadata>
<path stroke="#2a2a2a" d="M0 0h36M0 1h36M0 2h36M0 3h36M0 4h36M0 5h36M0 6h36M0 7h36M0 8h36M0 9h36M0 10h36M0 11h36M0 12h36M0 13h36M0 14h16M21 14h15M0 15h15M22 15h14M0 16h14M23 16h13M0 17h14M23 17h13M0 18h14M23 18h13M0 19h14M23 19h13M0 20h14M23 20h13M0 21h15M22 21h14M0 22h16M21 22h15M0 23h36M0 24h36M0 25h36M0 26h36M0 27h36M0 28h36M0 29h36M0 30h36M0 31h36M0 32h36M0 33h36M0 34h36M0 35h36" />
<path stroke="#ac3d17" d="M16 14h2M15 15h1M19 15h1M14 16h1M21 16h1M14 17h1M20 17h2M19 18h2M18 19h2M15 20h2M17 21h1" />
<path stroke="#782d12" d="M18 14h1M20 15h1M14 18h1M21 18h1M14 19h1M20 19h2M14 20h1M19 20h2M16 21h1M18 21h2" />
<path stroke="#5d230e" d="M19 14h2M21 15h1M22 16h1M22 17h1M22 18h1M22 19h1M21 20h2M15 21h1M20 21h2M16 22h5" />
<path stroke="#e9683b" d="M16 15h1M18 15h1M15 16h1M18 17h1M15 18h1M17 18h1" />
<path stroke="#ed8460" d="M17 15h1M18 16h1M15 17h1M16 18h1" />
<path stroke="#e85d2c" d="M16 16h1M17 17h1" />
<path stroke="#fbe3db" d="M17 16h1M16 17h1" />
<path stroke="#eb734a" d="M19 16h1M16 19h1" />
<path stroke="#d84d1c" d="M20 16h1M19 17h1M18 18h1M15 19h1M17 19h1M17 20h1" />
<path stroke="#873213" d="M18 20h1" />
</svg>