<svg xmlns="http://www.w3.org/2000/svg" viewBox="0 -0.5 36 36" shape-rendering="crispEdges">
<metadata>Made with Pixels to Svg https://codepen.io/shshaw/pen/XbxvNj</metadata>
<path stroke="#bebebe" d="M0 0h1" />
<path stroke="#aaaaaa" d="M1 0h34M0 1h1M0 2h1M0 3h1M0 4h1M0 5h1M0 6h1M7 6h1M28 6h1M0 7h1M6 7h1M10 7h1M27 7h1M31 7h1M0 8h1M10 8h1M31 8h1M0 9h1M9 9h2M30 9h2M0 10h1M7 10h3M28 10h3M0 11h1M0 12h1M0 13h1M0 14h1M0 15h1M0 16h1M0 17h1M0 18h1M0 19h1M0 20h1M0 21h1M0 22h1M0 23h1M0 24h1M0 25h1M0 26h1M0 27h1M7 27h1M28 27h1M0 28h1M6 28h1M10 28h1M27 28h1M31 28h1M0 29h1M10 29h1M31 29h1M0 30h1M9 30h2M30 30h2M0 31h1M7 31h3M28 31h3M0 32h1M0 33h1M0 34h1" />
<path stroke="#8e8e8e" d="M35 0h1M2 3h32M2 5h4M9 5h18M30 5h4M10 6h1M31 6h1M2 7h3M7 7h1M11 7h15M28 7h1M32 7h2M7 8h1M28 8h1M2 9h4M11 9h16M32 9h2M6 10h1M27 10h1M2 11h32M2 13h32M2 15h32M2 17h32M2 19h32M2 21h32M2 23h32M2 25h32M9 26h1M30 26h1M2 27h3M10 27h16M31 27h3M7 28h1M28 28h1M2 29h3M7 29h1M11 29h15M28 29h1M32 29h2M5 30h1M26 30h1M2 31h5M10 31h18M31 31h3M2 33h32M0 35h1M35 35h1" />
<path stroke="#dfdfdf" d="M1 1h33M1 2h1M1 3h1M1 4h1M1 5h1M1 6h1M1 7h1M1 8h1M1 9h1M1 10h1M1 11h1M1 12h1M1 13h1M1 14h1M1 15h1M1 16h1M1 17h1M1 18h1M1 19h1M1 20h1M1 21h1M1 22h1M1 23h1M1 24h1M1 25h1M1 26h1M1 27h1M1 28h1M1 29h1M1 30h1M1 31h1M1 32h1M1 33h1" />
<path stroke="#9e9e9e" d="M34 1h1" />
<path stroke="#6d6d6d" d="M35 1h1M35 2h1M35 3h1M35 4h1M35 5h1M6 6h1M8 6h1M27 6h1M29 6h1M35 6h1M9 7h1M30 7h1M35 7h1M6 8h1M8 8h2M27 8h1M29 8h2M35 8h1M7 9h2M28 9h2M35 9h1M35 10h1M35 11h1M35 12h1M35 13h1M35 14h1M35 15h1M35 16h1M35 17h1M35 18h1M35 19h1M35 20h1M35 21h1M35 22h1M35 23h1M35 24h1M35 25h1M35 26h1M6 27h1M8 27h1M27 27h1M29 27h1M35 27h1M9 28h1M30 28h1M35 28h1M6 29h1M8 29h2M27 29h1M29 29h2M35 29h1M7 30h2M28 30h2M35 30h1M35 31h1M35 32h1M35 33h1M1 34h1M35 34h1M1 35h34" />
<path stroke="#7d7d7d" d="M2 2h32M2 4h32M2 6h3M11 6h15M32 6h2M8 7h1M29 7h1M2 8h3M11 8h15M32 8h2M2 10h4M10 10h17M31 10h3M2 12h32M2 14h32M2 16h32M2 18h32M2 20h32M2 22h32M2 24h32M2 26h4M10 26h17M31 26h3M2 28h3M8 28h1M11 28h15M29 28h1M32 28h2M2 30h3M11 30h15M32 30h2M2 32h32" />
<path stroke="#4d4d4d" d="M34 2h1M34 3h1M34 4h1M34 5h1M34 6h1M34 7h1M34 8h1M34 9h1M34 10h1M34 11h1M34 12h1M34 13h1M34 14h1M34 15h1M34 16h1M34 17h1M34 18h1M34 19h1M34 20h1M34 21h1M34 22h1M34 23h1M34 24h1M34 25h1M34 26h1M34 27h1M34 28h1M34 29h1M34 30h1M34 31h1M34 32h1M34 33h1M2 34h33" />
<path stroke="#2c2c2c" d="M6 5h3M27 5h3M5 7h1M26 7h1M6 26h3M27 26h3M5 28h1M26 28h1" />
<path stroke="#3c3c3c" d="M5 6h1M26 6h1M5 8h1M26 8h1M5 27h1M26 27h1M5 29h1M26 29h1" />
<path stroke="#555555" d="M9 6h1M30 6h1M6 9h1M27 9h1M9 27h1M30 27h1M6 30h1M27 30h1" />
</svg>