<svg xmlns="http://www.w3.org/2000/svg" viewBox="0 -0.5 36 36" shape-rendering="crispEdges">
<metadata>Made with Pixels to Svg https://codepen.io/shshaw/pen/XbxvNj</metadata>
<path stroke="#e86e48" d="M0 0h35M0 1h1M0 2h1M2 2h2M31 2h2M0 3h1M2 3h1M31 3h1M0 4h1M0 5h1M0 6h1M9 6h1M26 6h1M30 6h1M0 7h1M10 7h1M25 7h1M30 7h1M0 8h1M11 8h1M24 8h1M30 8h1M0 9h1M12 9h1M23 9h1M30 9h1M0 10h1M13 10h1M22 10h1M30 10h1M0 11h1M14 11h1M21 11h1M30 11h1M0 12h1M15 12h1M20 12h1M30 12h1M0 13h1M16 13h1M19 13h1M30 13h1M0 14h1M17 14h2M30 14h1M0 15h1M18 15h1M30 15h1M0 16h1M17 16h3M30 16h1M0 17h1M16 17h1M20 17h1M30 17h1M0 18h1M16 18h1M21 18h1M30 18h1M0 19h1M13 19h1M22 19h1M30 19h1M0 20h1M12 20h1M23 20h1M30 20h1M0 21h1M11 21h1M24 21h1M30 21h1M0 22h1M10 22h1M25 22h1M30 22h1M0 23h1M9 23h1M26 23h1M30 23h1M0 24h1M8 24h1M27 24h1M30 24h1M0 25h1M7 25h1M28 25h1M30 25h1M0 26h1M29 26h2M0 27h1M30 27h1M0 28h1M30 28h1M0 29h1M30 29h1M0 30h1M6 30h25M0 31h1M2 31h2M31 31h2M0 32h1M2 32h1M31 32h1M0 33h1M0 34h1" />
<path stroke="#5d2404" d="M35 0h1M35 1h1M35 2h1M35 3h1M35 4h1M35 5h1M11 6h1M17 6h1M23 6h1M35 6h1M11 7h1M17 7h1M23 7h1M35 7h1M17 8h1M23 8h1M35 8h1M17 9h1M35 9h1M6 10h1M17 10h1M29 10h1M35 10h1M7 11h1M17 11h1M29 11h1M35 11h1M8 12h1M17 12h1M29 12h1M35 12h1M9 13h1M17 13h1M29 13h1M35 13h1M10 14h1M29 14h1M35 14h1M11 15h1M29 15h1M35 15h1M11 16h2M23 16h1M29 16h1M35 16h1M11 17h1M13 17h1M23 17h1M29 17h1M35 17h1M11 18h1M14 18h1M23 18h1M29 18h1M35 18h1M11 19h1M15 19h1M23 19h1M29 19h1M35 19h1M11 20h1M16 20h1M29 20h1M35 20h1M17 21h1M29 21h1M35 21h1M17 22h2M29 22h1M35 22h1M17 23h1M19 23h1M29 23h1M35 23h1M17 24h1M20 24h1M29 24h1M35 24h1M17 25h1M21 25h1M29 25h1M35 25h1M17 26h1M22 26h1M35 26h1M17 27h1M23 27h1M35 27h1M11 28h1M17 28h1M23 28h2M35 28h1M11 29h1M17 29h1M23 29h1M25 29h1M35 29h1M35 30h1M35 31h1M35 32h1M35 33h1M35 34h1M0 35h36" />
<path stroke="#9e4524" d="M1 1h34M1 2h1M5 2h26M34 2h1M1 3h1M3 3h1M5 3h26M32 3h1M34 3h1M1 4h1M5 4h26M34 4h1M1 5h4M31 5h4M1 6h4M6 6h3M27 6h3M31 6h4M1 7h4M6 7h4M26 7h4M31 7h4M1 8h4M6 8h5M25 8h5M31 8h4M1 9h4M7 9h5M24 9h5M31 9h4M1 10h4M8 10h5M23 10h5M31 10h4M1 11h4M9 11h5M22 11h5M31 11h4M1 12h4M10 12h5M21 12h5M31 12h4M1 13h4M11 13h5M20 13h5M31 13h4M1 14h4M12 14h5M19 14h5M31 14h4M1 15h4M13 15h5M19 15h4M31 15h4M1 16h4M14 16h2M20 16h2M31 16h4M1 17h4M15 17h1M17 17h2M31 17h4M1 18h4M17 18h2M20 18h1M31 18h4M1 19h4M14 19h1M20 19h2M31 19h4M1 20h4M13 20h3M18 20h5M31 20h4M1 21h4M12 21h5M19 21h5M31 21h4M1 22h4M11 22h5M20 22h5M31 22h4M1 23h4M10 23h5M21 23h5M31 23h4M1 24h4M9 24h5M22 24h5M31 24h4M1 25h4M8 25h5M23 25h5M31 25h4M1 26h4M7 26h5M24 26h5M31 26h4M1 27h4M7 27h4M25 27h5M31 27h4M1 28h4M7 28h3M26 28h4M31 28h4M1 29h4M7 29h2M27 29h3M31 29h4M1 30h4M31 30h4M1 31h1M5 31h26M34 31h1M1 32h1M3 32h1M5 32h26M32 32h1M34 32h1M1 33h1M5 33h26M34 33h1M1 34h34" />
<path stroke="#8e381c" d="M4 2h1M33 2h1M2 4h1M31 4h1M10 6h1M13 6h4M19 6h4M25 6h1M13 7h4M19 7h4M13 8h4M19 8h4M13 9h4M19 9h4M14 10h3M19 10h3M15 11h2M19 11h2M28 11h1M7 12h1M16 12h1M19 12h1M27 12h2M7 13h2M26 13h3M7 14h3M25 14h4M7 15h4M25 15h4M7 16h4M16 16h1M25 16h4M7 17h4M22 17h1M25 17h4M7 18h4M13 18h1M22 18h1M25 18h4M7 19h4M19 19h1M25 19h4M7 20h4M25 20h4M7 21h4M25 21h4M7 22h3M26 22h3M7 23h2M16 23h1M27 23h2M7 24h1M15 24h2M19 24h1M28 24h1M14 25h3M19 25h2M13 26h4M19 26h3M13 27h4M19 27h4M13 28h4M19 28h4M10 29h1M13 29h4M19 29h4M4 31h1M33 31h1M2 33h1M31 33h1" />
<path stroke="#3c1400" d="M4 3h1M33 3h1M3 4h2M32 4h2M5 5h25M5 6h1M5 7h1M5 8h1M5 9h2M5 10h1M7 10h1M5 11h1M8 11h1M5 12h1M9 12h1M5 13h1M10 13h1M5 14h1M11 14h1M5 15h1M12 15h1M5 16h1M13 16h1M5 17h1M14 17h1M19 17h1M5 18h1M15 18h1M19 18h1M5 19h1M16 19h3M5 20h1M17 20h1M5 21h1M18 21h1M5 22h1M19 22h1M5 23h1M20 23h1M5 24h1M21 24h1M5 25h1M22 25h1M5 26h1M23 26h1M5 27h1M24 27h1M5 28h1M25 28h1M5 29h1M26 29h1M4 32h1M33 32h1M3 33h2M32 33h2" />
<path stroke="#7d3018" d="M30 5h1M5 30h1" />
<path stroke="#b25530" d="M12 6h1M18 6h1M24 6h1M12 7h1M18 7h1M24 7h1M12 8h1M18 8h1M18 9h1M18 10h1M6 11h1M18 11h1M6 12h1M18 12h1M6 13h1M18 13h1M6 14h1M6 15h1M24 15h1M6 16h1M24 16h1M6 17h1M12 17h1M24 17h1M6 18h1M12 18h1M24 18h1M6 19h1M12 19h1M24 19h1M6 20h1M24 20h1M6 21h1M6 22h1M6 23h1M18 23h1M6 24h1M18 24h1M6 25h1M18 25h1M6 26h1M18 26h1M6 27h1M12 27h1M18 27h1M6 28h1M12 28h1M18 28h1M6 29h1M12 29h1M18 29h1M24 29h1" />
<path stroke="#3c2414" d="M29 9h1M28 10h1M27 11h1M26 12h1M25 13h1M24 14h1M23 15h1M22 16h1M21 17h1M16 22h1M15 23h1M14 24h1M13 25h1M12 26h1M11 27h1M10 28h1M9 29h1" />
</svg>